<svg width="20" height="20" viewBox="0 0 20 20" fill="none" xmlns="http://www.w3.org/2000/svg">
<path opacity="0.4" fill-rule="evenodd" clip-rule="evenodd" d="M4.67871 9.10938C4.67871 8.69516 4.34292 8.35938 3.92871 8.35938C3.5145 8.35938 3.17871 8.69516 3.17871 9.10938C3.17871 12.6782 5.87942 15.6155 9.34888 15.9891V17.6218C9.34888 18.036 9.68466 18.3718 10.0989 18.3718C10.5131 18.3718 10.8489 18.036 10.8489 17.6218V15.989C14.318 15.6151 17.0184 12.678 17.0184 9.10938C17.0184 8.69516 16.6826 8.35938 16.2684 8.35938C15.8542 8.35938 15.5184 8.69516 15.5184 9.10938C15.5184 12.1031 13.0923 14.5292 10.0986 14.5292C7.10483 14.5292 4.67871 12.1031 4.67871 9.10938Z" fill="#4D70B3"/>
<path fill-rule="evenodd" clip-rule="evenodd" d="M10.2039 12.1538H9.9936C8.30948 12.1538 6.9436 10.7887 6.9436 9.10378V5.31172C6.9436 3.62759 8.30948 2.26172 9.9936 2.26172H10.2039C11.888 2.26172 13.2539 3.62759 13.2539 5.31172V9.10378C13.2539 10.7887 11.888 12.1538 10.2039 12.1538Z" stroke="#4D70B3" stroke-width="1.5" stroke-linecap="round" stroke-linejoin="round"/>
</svg>
