<svg width="8" height="8" viewBox="0 0 8 8" fill="none" xmlns="http://www.w3.org/2000/svg">
<path d="M7.01631 5.77032L5.23731 3.99232L7.01531 2.21432C7.35731 1.87332 7.35731 1.31832 7.01531 0.977317C6.67331 0.633317 6.12031 0.634317 5.77831 0.976317L3.99931 2.75432L2.22031 0.974317C1.87831 0.632317 1.32431 0.634317 0.982313 0.974317C0.641313 1.31632 0.641313 1.87132 0.982313 2.21232L2.76231 3.99232L0.986313 5.76732C0.644313 6.10932 0.644313 6.66432 0.986313 7.00432C1.15731 7.17632 1.38031 7.26132 1.60431 7.26132C1.82931 7.26132 2.05231 7.17632 2.22331 7.00532L3.99931 5.22932L5.77931 7.00832C5.95031 7.17932 6.17331 7.26432 6.39731 7.26432C6.62131 7.26432 6.84531 7.17832 7.01631 7.00832C7.35831 6.66632 7.35831 6.11232 7.01631 5.77032" fill="#436FB4"/>
</svg>
