<svg width="32" height="32" viewBox="0 0 32 32" fill="none" xmlns="http://www.w3.org/2000/svg">
<path d="M11.4438 12.4434L19.9291 20.9286" stroke="#4D70B3" stroke-width="2" stroke-linecap="round" stroke-linejoin="round"/>
<path d="M27.0003 26.9795H9.00894L4.3729 22.3435C4.18718 22.1577 4.03986 21.9373 3.93935 21.6946C3.83884 21.452 3.78711 21.1919 3.78711 20.9292C3.78711 20.6666 3.83884 20.4065 3.93935 20.1639C4.03986 19.9212 4.18718 19.7007 4.3729 19.515L18.515 5.3729C18.8901 4.99782 19.3988 4.78711 19.9292 4.78711C20.4597 4.78711 20.9684 4.99782 21.3435 5.3729L27.0003 11.0297C27.186 11.2155 27.3334 11.4359 27.4339 11.6786C27.5344 11.9212 27.5861 12.1813 27.5861 12.444C27.5861 12.7066 27.5344 12.9667 27.4339 13.2093C27.3334 13.452 27.186 13.6725 27.0003 13.8582L13.879 26.9795" stroke="#4D70B3" stroke-width="2" stroke-linecap="round" stroke-linejoin="round"/>
</svg>
