<svg width="17" height="17" viewBox="0 0 17 17" fill="none" xmlns="http://www.w3.org/2000/svg">
<path d="M4.49819 14.084C4.23685 14.084 4.01285 13.9953 3.82619 13.818C3.63952 13.6313 3.54619 13.398 3.54619 13.118C3.54619 12.8473 3.63952 12.6233 3.82619 12.446C4.01285 12.2593 4.23685 12.166 4.49819 12.166C4.75952 12.166 4.97885 12.2547 5.15619 12.432C5.33352 12.6093 5.42219 12.838 5.42219 13.118C5.42219 13.398 5.32885 13.6313 5.14219 13.818C4.96485 13.9953 4.75019 14.084 4.49819 14.084ZM8.51006 14.084C8.24873 14.084 8.02473 13.9953 7.83806 13.818C7.6514 13.6313 7.55806 13.398 7.55806 13.118C7.55806 12.8473 7.6514 12.6233 7.83806 12.446C8.02473 12.2593 8.24873 12.166 8.51006 12.166C8.7714 12.166 8.99073 12.2547 9.16806 12.432C9.3454 12.6093 9.43406 12.838 9.43406 13.118C9.43406 13.398 9.34073 13.6313 9.15406 13.818C8.97673 13.9953 8.76206 14.084 8.51006 14.084ZM12.5219 14.084C12.2606 14.084 12.0366 13.9953 11.8499 13.818C11.6633 13.6313 11.5699 13.398 11.5699 13.118C11.5699 12.8473 11.6633 12.6233 11.8499 12.446C12.0366 12.2593 12.2606 12.166 12.5219 12.166C12.7833 12.166 13.0026 12.2547 13.1799 12.432C13.3573 12.6093 13.4459 12.838 13.4459 13.118C13.4459 13.398 13.3526 13.6313 13.1659 13.818C12.9886 13.9953 12.7739 14.084 12.5219 14.084Z" fill="#4D70B3"/>
</svg>
